<svg xmlns="http://www.w3.org/2000/svg" viewBox="0 0 78 34" fill="#FFFFFF">
  <path d="M62.5351 11.8439C60.3061 13.8039 62.0837 16.2897 62.0837 16.2897L67.2705 11.8298C67.2705 11.8298 65.0157 9.66324 62.5351 11.8462V11.8439ZM48.2348 18.1346C48.6848 17.7807 49.0486 17.3295 49.2987 16.815C49.5488 16.3005 49.6787 15.736 49.6787 15.1641C49.6787 14.5922 49.5488 14.0278 49.2987 13.5132C49.0486 12.9987 48.6848 12.5475 48.2348 12.1936C47.6608 11.6768 46.9152 11.3908 46.1422 11.3908C45.3692 11.3908 44.6237 11.6768 44.0496 12.1936C43.5992 12.5473 43.2351 12.9984 42.9848 13.5129C42.7344 14.0275 42.6043 14.5921 42.6043 15.1641C42.6043 15.7362 42.7344 16.3008 42.9848 16.8153C43.2351 17.3299 43.5992 17.781 44.0496 18.1346C44.6237 18.6514 45.3692 18.9374 46.1422 18.9374C46.9152 18.9374 47.6608 18.6514 48.2348 18.1346V18.1346ZM29.6835 17.9468C30.1326 17.6034 30.4964 17.1614 30.7469 16.6551C30.9973 16.1487 31.1275 15.5915 31.1275 15.0268C31.1275 14.4621 30.9973 13.9049 30.7469 13.3986C30.4964 12.8922 30.1326 12.4502 29.6835 12.1068C29.1049 11.5984 28.3605 11.318 27.5898 11.318C26.819 11.318 26.0746 11.5984 25.496 12.1068C25.0469 12.4502 24.6831 12.8922 24.4326 13.3986C24.1822 13.9049 24.052 14.4621 24.052 15.0268C24.052 15.5915 24.1822 16.1487 24.4326 16.6551C24.6831 17.1614 25.0469 17.6034 25.496 17.9468C26.0746 18.4552 26.819 18.7356 27.5898 18.7356C28.3605 18.7356 29.1049 18.4552 29.6835 17.9468ZM64.6935 18.9069C66.1466 20.0195 68.566 19.4116 71.1783 16.6699L74.0844 20.097C71.7073 23.0076 68.9516 24.3644 65.098 24.3644C60.8281 24.3644 57.1954 21.8128 55.8152 18.2356V24.8573C55.8152 29.8359 52.3237 33.8545 47.0028 34H46.9769C40.5416 34 37.3556 30.1997 37.3556 25.2211H43.6076C43.6076 27.3618 44.407 28.6529 46.4761 28.6529C48.5452 28.6529 49.4105 27.3525 49.4105 25.2235V24.0944C48.7062 24.3433 47.9729 24.5011 47.2285 24.5639C46.8737 24.6125 46.5166 24.6423 46.1587 24.6531H46.1187C45.1883 24.6274 44.2658 24.4742 43.3772 24.1977C41.7323 23.768 40.2536 22.8574 39.1308 21.5828C38.3398 20.764 37.7027 19.8099 37.2498 18.7661V23.4278H31.6304C30.3655 24.0103 28.9951 24.3298 27.6027 24.3667H27.5768C23.8148 24.2634 20.556 22.1438 18.9783 19.1487C18.4964 20.4672 17.5694 21.5769 16.3567 22.287C13.2013 24.5193 8.47062 24.0498 8.47062 24.0498C5.30114 24.0052 3.11214 22.7611 1.75782 21.0664C0.347074 19.4914 -0.0761503 17.4938 0.0108457 15.6817L0.0343582 15.4892H6.86942V15.7779C6.88823 16.8788 7.23151 17.9468 7.87105 18.4421C8.81155 19.1651 10.2223 19.0266 10.8877 18.5032C12.0069 17.5807 12.0422 15.5174 8.67048 14.9564C5.17418 14.1912 -0.231333 13.0175 0.217755 6.67982C0.711516 -0.291644 9.64389 0.00176868 9.64389 0.00176868C16.7823 0.100355 18.6915 4.40529 18.5222 8.38631H12.0257C12.1315 5.94512 11.0523 4.9663 9.49341 4.94517C7.56539 4.91701 6.1711 8.21496 10.3116 8.93558C13.3494 9.59986 16.7305 10.0951 18.28 12.7077C19.3616 8.80882 23.1095 5.84419 27.5839 5.72213H27.6097C29.2151 5.76176 30.7884 6.17916 32.2017 6.94037H37.2592V11.5833C38.0276 9.86604 39.2676 8.40122 40.8356 7.3585C42.4035 6.31578 44.2353 5.73784 46.1187 5.69161H46.1446C47.7043 5.73434 49.2332 6.13599 50.6119 6.86526L54.9382 6.90282H55.7941V11.703C57.0967 8.16097 60.4966 5.60007 65.1168 5.60007C69.4242 5.60007 72.5091 7.63752 74.1056 10.7641L64.6935 18.9069ZM75.9372 5.58833C75.6678 5.58414 75.4033 5.66011 75.1773 5.80657C74.9513 5.95303 74.7741 6.16334 74.6683 6.4107C74.5625 6.65806 74.5329 6.93126 74.5832 7.1955C74.6335 7.45973 74.7615 7.70302 74.9509 7.89437C75.1402 8.08572 75.3823 8.21646 75.6464 8.26992C75.9104 8.32338 76.1844 8.29715 76.4335 8.19457C76.6825 8.09199 76.8953 7.9177 77.0448 7.69391C77.1943 7.47013 77.2736 7.20699 77.2727 6.93803C77.2739 6.76182 77.2404 6.58709 77.1739 6.42386C77.1074 6.26062 77.0093 6.11206 76.8853 5.9867C76.7613 5.86134 76.6137 5.76163 76.451 5.69327C76.2883 5.62491 76.1137 5.58925 75.9372 5.58833V5.58833ZM75.9372 5.79724C76.1665 5.7855 76.394 5.84269 76.5904 5.96142C76.7867 6.08015 76.9429 6.25496 77.0387 6.46324C77.1345 6.67153 77.1655 6.90371 77.1277 7.12978C77.0899 7.35584 76.9851 7.56539 76.8267 7.73133C76.6684 7.89727 76.4638 8.01198 76.2394 8.06061C76.0151 8.10924 75.7813 8.08957 75.5683 8.00414C75.3552 7.91871 75.1728 7.77145 75.0445 7.58139C74.9162 7.39133 74.8479 7.16722 74.8486 6.93803C74.8445 6.79163 74.8695 6.64588 74.9221 6.50917C74.9747 6.37245 75.0539 6.24748 75.1551 6.14144C75.2562 6.03541 75.3774 5.95041 75.5117 5.89133C75.6459 5.83226 75.7905 5.80028 75.9372 5.79724ZM75.6785 7.07652H75.8455C75.8847 7.07057 75.9247 7.07287 75.963 7.08327C76.0013 7.09368 76.0369 7.11195 76.0677 7.13693C76.0985 7.16191 76.1237 7.19303 76.1417 7.22831C76.1597 7.26358 76.1701 7.30223 76.1723 7.34176C76.1821 7.47443 76.2164 7.60414 76.2734 7.72437H76.5273C76.4747 7.607 76.4421 7.48163 76.4309 7.3535C76.4004 7.11877 76.311 7.01079 76.177 6.98732C76.2606 6.96906 76.3353 6.92275 76.3888 6.85611C76.4423 6.78947 76.4713 6.70653 76.4709 6.62114C76.4758 6.5619 76.466 6.50237 76.4422 6.44788C76.4184 6.39339 76.3814 6.34566 76.3345 6.30895C76.1934 6.22329 76.0292 6.18313 75.8643 6.19393C75.7216 6.19465 75.5793 6.20721 75.4387 6.23149V7.73611H75.6738L75.6785 7.07652ZM75.6785 6.37233C75.736 6.36261 75.7942 6.3579 75.8525 6.35824C76.1229 6.35824 76.2193 6.49204 76.2193 6.62349C76.2193 6.80893 76.0524 6.88169 75.8525 6.88169H75.6785V6.37233Z"/>
</svg>
